<svg width="24" height="24" viewBox="0 0 24 24" fill="none" xmlns="http://www.w3.org/2000/svg">
<path d="M20.995 6.90002C20.961 6.55802 20.754 6.25802 20.447 6.10502L12.447 2.10502C12.166 1.96402 11.834 1.96402 11.552 2.10502L3.552 6.10502C3.246 6.25902 3.039 6.55902 3.005 6.90002C2.994 7.00702 2.044 17.667 11.594 21.914C11.723 21.972 11.861 22 12 22C12.139 22 12.277 21.972 12.406 21.914C21.956 17.667 21.006 7.00802 20.995 6.90002ZM12 19.897C5.231 16.625 4.911 9.64202 4.966 7.63502L12 4.11802L19.029 7.63302C19.066 9.62202 18.701 16.651 12 19.897Z" fill="white"/>
<path d="M11 12.586L8.707 10.293L7.293 11.707L11 15.414L16.707 9.70697L15.293 8.29297L11 12.586Z" fill="white"/>
</svg>
